<svg width="55" height="56" viewBox="0 0 55 56" fill="none" xmlns="http://www.w3.org/2000/svg">
<rect y="0.653572" width="55" height="55" rx="4.05103" fill="white"/>
<path d="M7.69776 23.0263C6.6844 19.2444 8.92875 15.357 12.7107 14.3437L18.7394 36.8434C19.7528 40.6253 17.5085 44.5126 13.7265 45.526L7.69776 23.0263Z" fill="black"/>
<path d="M19.2593 26.3897C23.0412 25.3764 26.9285 27.6207 27.9419 31.4026L31.2346 43.6911C27.4527 44.7045 23.5653 42.4601 22.552 38.6782L19.2593 26.3897Z" fill="#4D4848"/>
<path d="M29.0184 23.0263C28.0051 19.2444 30.2494 15.357 34.0313 14.3437L40.0601 36.8434C41.0735 40.6253 38.8291 44.5126 35.0472 45.526L29.0184 23.0263Z" fill="black"/>
<circle cx="41.5413" cy="15.3386" r="4.55741" fill="#E14640"/>
</svg>
